<?xml version="1.0" encoding="iso-8859-1"?>
<!-- Generator: Adobe Illustrator 18.0.0, SVG Export Plug-In . SVG Version: 6.00 Build 0)  -->
<!DOCTYPE svg PUBLIC "-//W3C//DTD SVG 1.1//EN" "http://www.w3.org/Graphics/SVG/1.1/DTD/svg11.dtd">
<svg version="1.1" id="Capa_1" xmlns="http://www.w3.org/2000/svg" xmlns:xlink="http://www.w3.org/1999/xlink" x="0px" y="0px"
	 viewBox="0 0 210.732 210.732" style="enable-background:new 0 0 210.732 210.732;" xml:space="preserve">
<path d="M191.548,86.183C191.548,38.586,152.962,0,105.364,0c-47.597,0-86.18,38.586-86.18,86.183
	c0,32.314,17.794,60.458,44.109,75.211c-16.813,13.191-32.263,30.449-32.263,49.339h148.667c0-18.89-15.45-36.147-32.262-49.339
	C173.751,146.642,191.548,118.497,191.548,86.183z M105.364,17.653c4.144,0,7.507,3.358,7.507,7.5c0,4.148-3.363,7.506-7.507,7.506
	c-4.145,0-7.502-3.357-7.502-7.506C97.862,21.012,101.22,17.653,105.364,17.653z M105.364,126.34
	c-22.178,0-40.159-17.977-40.159-40.157c0-22.18,17.981-40.161,40.159-40.161c22.182,0,40.157,17.981,40.157,40.161
	C145.521,108.363,127.546,126.34,105.364,126.34z M124.55,86.18c0,10.597-8.59,19.187-19.187,19.187
	c-10.596,0-19.186-8.59-19.186-19.187c0-10.595,8.59-19.185,19.186-19.185C115.96,66.995,124.55,75.585,124.55,86.18z"/>
<g>
</g>
<g>
</g>
<g>
</g>
<g>
</g>
<g>
</g>
<g>
</g>
<g>
</g>
<g>
</g>
<g>
</g>
<g>
</g>
<g>
</g>
<g>
</g>
<g>
</g>
<g>
</g>
<g>
</g>
</svg>
