<?xml version="1.0"?>
<svg xmlns="http://www.w3.org/2000/svg" xmlns:xlink="http://www.w3.org/1999/xlink" version="1.1" id="Capa_1" x="0px" y="0px" viewBox="0 0 491.52 491.52" style="enable-background:new 0 0 491.52 491.52;" xml:space="preserve" width="512px" height="512px" class=""><g><circle style="fill:#E84D0F" cx="245.76" cy="245.76" r="245.76" data-original="#EFC84A" class="" data-old_color="#E84C0E"/><path style="fill:#EBF0F3;" d="M142.361,167.436l17.868,208.582c0.435,5.942,5.382,10.542,11.34,10.542h148.38  c5.958,0,10.906-4.599,11.34-10.542l17.869-208.582H142.361z" data-original="#EBF0F3" class=""/><path style="fill:#FAFBFD" d="M287.338,146.106h-83.156v-29.939c0-6.179,5.027-11.207,11.206-11.207h60.744  c6.179,0,11.206,5.028,11.206,11.207V146.106z M213.147,137.141h65.226v-20.974c0-1.237-1.005-2.242-2.241-2.242h-60.744  c-1.237,0-2.241,1.005-2.241,2.242V137.141z" data-original="#3A556A" class="active-path" data-old_color="#F5F6F8"/><path style="fill:#F1F1F2" d="M346.462,135.52H145.058c-6.28,0-11.371,5.091-11.371,11.371v20.545h224.146v-20.545  C357.833,140.611,352.743,135.52,346.462,135.52z" data-original="#64798A" class="" data-old_color="#E8EAED"/><g>
	<polygon style="fill:#E1E6E9;" points="349.159,167.436 142.362,167.436 142.362,167.436 346.867,194.191  " data-original="#E1E6E9" class=""/>
	<path style="fill:#E1E6E9;" d="M188.324,195.808c-2.047,0-3.705,1.659-3.705,3.705v159.917c0,2.046,1.659,3.705,3.705,3.705l0,0   V195.808L188.324,195.808z" data-original="#E1E6E9" class=""/>
</g><path style="fill:#D5D6DB" d="M188.324,195.808v167.327c2.046,0,3.705-1.659,3.705-3.705V199.514  C192.029,197.468,190.37,195.809,188.324,195.808z" data-original="#D5D6DB" class=""/><path style="fill:#E1E6E9;" d="M217.042,195.808c-2.047,0-3.705,1.659-3.705,3.705v159.917c0,2.046,1.659,3.705,3.705,3.705l0,0  V195.808L217.042,195.808z" data-original="#E1E6E9" class=""/><path style="fill:#D5D6DB" d="M217.042,195.808v167.327c2.046,0,3.705-1.659,3.705-3.705V199.514  C220.747,197.468,219.088,195.809,217.042,195.808z" data-original="#D5D6DB" class=""/><path style="fill:#E1E6E9;" d="M245.759,195.808c-2.046,0-3.705,1.659-3.705,3.705v159.917c0,2.046,1.659,3.705,3.705,3.705l0,0  V195.808L245.759,195.808z" data-original="#E1E6E9" class=""/><path style="fill:#D5D6DB" d="M245.759,195.808v167.327c2.046,0,3.706-1.659,3.706-3.705V199.514  C249.465,197.468,247.806,195.809,245.759,195.808z" data-original="#D5D6DB" class=""/><path style="fill:#E1E6E9;" d="M274.477,195.808c-2.046,0-3.705,1.659-3.705,3.705v159.917c0,2.046,1.658,3.705,3.705,3.705l0,0  V195.808L274.477,195.808z" data-original="#E1E6E9" class=""/><path style="fill:#D5D6DB" d="M274.477,195.808v167.327c2.046,0,3.706-1.659,3.706-3.705V199.514  C278.183,197.468,276.524,195.809,274.477,195.808z" data-original="#D5D6DB" class=""/><path style="fill:#E1E6E9;" d="M303.196,195.808c-2.046,0-3.705,1.659-3.705,3.705v159.917c0,2.046,1.658,3.705,3.705,3.705l0,0  V195.808L303.196,195.808z" data-original="#E1E6E9" class=""/><path style="fill:#D5D6DB" d="M303.196,195.808v167.327c2.046,0,3.706-1.659,3.706-3.705V199.514  C306.901,197.468,305.242,195.809,303.196,195.808z" data-original="#D5D6DB" class=""/></g> </svg>
